<svg width="57" height="57" viewBox="0 0 57 57" fill="none" xmlns="http://www.w3.org/2000/svg">
<rect width="57" height="57" rx="5" fill="#B4D6A4"/>
<path d="M29.4434 36.4434C28.6462 37.2405 27.3538 37.2405 26.5566 36.4434L13.5662 23.453C12.7691 22.6558 12.7691 21.3634 13.5662 20.5662C14.3634 19.7691 15.6558 19.7691 16.453 20.5662L28 32.1132L39.547 20.5662C40.3442 19.7691 41.6366 19.7691 42.4338 20.5662C43.2309 21.3634 43.2309 22.6558 42.4338 23.453L29.4434 36.4434ZM25.9588 6.5C25.9588 5.37265 26.8727 4.45876 28 4.45876C29.1273 4.45876 30.0412 5.37265 30.0412 6.5H25.9588ZM25.9588 35V6.5H30.0412V35L25.9588 35Z" fill="white"/>
<path d="M16.335 51.225C15.59 51.225 14.9375 51.0375 14.3775 50.6625C13.8175 50.2875 13.38 49.7775 13.065 49.1325C12.755 48.4875 12.6 47.76 12.6 46.95C12.6 46.125 12.7575 45.3925 13.0725 44.7525C13.3925 44.1075 13.84 43.6 14.415 43.23C14.99 42.86 15.665 42.675 16.44 42.675C17.21 42.675 17.8575 42.8625 18.3825 43.2375C18.9075 43.6125 19.305 44.1225 19.575 44.7675C19.845 45.4125 19.98 46.14 19.98 46.95C19.98 47.76 19.8425 48.4875 19.5675 49.1325C19.2975 49.7775 18.8925 50.2875 18.3525 50.6625C17.8125 51.0375 17.14 51.225 16.335 51.225ZM16.665 49.41C17.12 49.41 17.4825 49.3075 17.7525 49.1025C18.0275 48.8975 18.225 48.61 18.345 48.24C18.465 47.87 18.525 47.44 18.525 46.95C18.525 46.46 18.465 46.03 18.345 45.66C18.225 45.29 18.0325 45.0025 17.7675 44.7975C17.5075 44.5925 17.165 44.49 16.74 44.49C16.285 44.49 15.91 44.6025 15.615 44.8275C15.325 45.0475 15.11 45.345 14.97 45.72C14.83 46.09 14.76 46.5 14.76 46.95C14.76 47.405 14.8275 47.82 14.9625 48.195C15.0975 48.565 15.305 48.86 15.585 49.08C15.865 49.3 16.225 49.41 16.665 49.41ZM18.525 51V45.45H18.27V40.2H20.325V51H18.525ZM26.07 51.225C25.255 51.225 24.54 51.0425 23.925 50.6775C23.31 50.3125 22.83 49.81 22.485 49.17C22.145 48.525 21.975 47.785 21.975 46.95C21.975 46.105 22.15 45.3625 22.5 44.7225C22.85 44.0775 23.3325 43.575 23.9475 43.215C24.5625 42.855 25.27 42.675 26.07 42.675C26.885 42.675 27.6 42.8575 28.215 43.2225C28.835 43.5875 29.3175 44.0925 29.6625 44.7375C30.0075 45.3775 30.18 46.115 30.18 46.95C30.18 47.79 30.005 48.5325 29.655 49.1775C29.31 49.8175 28.8275 50.32 28.2075 50.685C27.5925 51.045 26.88 51.225 26.07 51.225ZM26.07 49.32C26.725 49.32 27.2125 49.1 27.5325 48.66C27.8575 48.215 28.02 47.645 28.02 46.95C28.02 46.23 27.855 45.655 27.525 45.225C27.2 44.795 26.715 44.58 26.07 44.58C25.625 44.58 25.26 44.68 24.975 44.88C24.69 45.08 24.4775 45.3575 24.3375 45.7125C24.2025 46.0675 24.135 46.48 24.135 46.95C24.135 47.675 24.2975 48.2525 24.6225 48.6825C24.9525 49.1075 25.435 49.32 26.07 49.32ZM35.3993 51.225C34.5593 51.225 33.8393 51.0375 33.2393 50.6625C32.6393 50.2875 32.1793 49.7775 31.8593 49.1325C31.5393 48.4875 31.3793 47.76 31.3793 46.95C31.3793 46.13 31.5443 45.3975 31.8743 44.7525C32.2093 44.1075 32.6793 43.6 33.2843 43.23C33.8893 42.86 34.6043 42.675 35.4293 42.675C36.3843 42.675 37.1843 42.9175 37.8293 43.4025C38.4793 43.8825 38.8943 44.54 39.0743 45.375L37.0343 45.915C36.9143 45.495 36.7043 45.1675 36.4043 44.9325C36.1093 44.6975 35.7743 44.58 35.3993 44.58C34.9693 44.58 34.6168 44.685 34.3418 44.895C34.0668 45.1 33.8643 45.3825 33.7343 45.7425C33.6043 46.0975 33.5393 46.5 33.5393 46.95C33.5393 47.655 33.6943 48.2275 34.0043 48.6675C34.3193 49.1025 34.7843 49.32 35.3993 49.32C35.8593 49.32 36.2093 49.215 36.4493 49.005C36.6893 48.795 36.8693 48.495 36.9893 48.105L39.0743 48.54C38.8443 49.4 38.4093 50.0625 37.7693 50.5275C37.1293 50.9925 36.3393 51.225 35.3993 51.225ZM40.6114 51V48.96H42.6514V51H40.6114Z" fill="white"/>
</svg>
