<svg width="57" height="57" viewBox="0 0 57 57" fill="none" xmlns="http://www.w3.org/2000/svg">
<rect width="57" height="57" rx="5" fill="#B4D6A4"/>
<path d="M29.4434 36.4434C28.6462 37.2405 27.3538 37.2405 26.5566 36.4434L13.5662 23.453C12.7691 22.6558 12.7691 21.3634 13.5662 20.5662C14.3634 19.7691 15.6558 19.7691 16.453 20.5662L28 32.1132L39.547 20.5662C40.3442 19.7691 41.6366 19.7691 42.4338 20.5662C43.2309 21.3634 43.2309 22.6558 42.4338 23.453L29.4434 36.4434ZM25.9588 6.5C25.9588 5.37265 26.8727 4.45876 28 4.45876C29.1273 4.45876 30.0412 5.37265 30.0412 6.5H25.9588ZM25.9588 35V6.5H30.0412V35L25.9588 35Z" fill="white"/>
<path d="M13.05 51V40.2H17.61C17.715 40.2 17.855 40.205 18.03 40.215C18.21 40.22 18.37 40.235 18.51 40.26C19.155 40.36 19.6825 40.5725 20.0925 40.8975C20.5075 41.2225 20.8125 41.6325 21.0075 42.1275C21.2025 42.6175 21.3 43.165 21.3 43.77C21.3 44.375 21.2 44.925 21 45.42C20.805 45.91 20.5 46.3175 20.085 46.6425C19.675 46.9675 19.15 47.18 18.51 47.28C18.37 47.3 18.21 47.315 18.03 47.325C17.85 47.335 17.71 47.34 17.61 47.34H15.09V51H13.05ZM15.09 45.435H17.52C17.625 45.435 17.74 45.43 17.865 45.42C17.99 45.41 18.105 45.39 18.21 45.36C18.485 45.285 18.6975 45.16 18.8475 44.985C18.9975 44.805 19.1 44.6075 19.155 44.3925C19.215 44.1725 19.245 43.965 19.245 43.77C19.245 43.575 19.215 43.37 19.155 43.155C19.1 42.935 18.9975 42.7375 18.8475 42.5625C18.6975 42.3825 18.485 42.255 18.21 42.18C18.105 42.15 17.99 42.13 17.865 42.12C17.74 42.11 17.625 42.105 17.52 42.105H15.09V45.435ZM22.8059 51V40.2H26.3009C26.3859 40.2 26.5609 40.2025 26.8259 40.2075C27.0909 40.2125 27.3459 40.23 27.5909 40.26C28.4609 40.365 29.1984 40.6675 29.8034 41.1675C30.4084 41.6675 30.8684 42.3025 31.1834 43.0725C31.4984 43.8425 31.6559 44.685 31.6559 45.6C31.6559 46.515 31.4984 47.3575 31.1834 48.1275C30.8684 48.8975 30.4084 49.5325 29.8034 50.0325C29.1984 50.5325 28.4609 50.835 27.5909 50.94C27.3459 50.97 27.0909 50.9875 26.8259 50.9925C26.5609 50.9975 26.3859 51 26.3009 51H22.8059ZM24.8759 49.08H26.3009C26.4359 49.08 26.6184 49.0775 26.8484 49.0725C27.0784 49.0625 27.2859 49.04 27.4709 49.005C27.9409 48.91 28.3234 48.69 28.6184 48.345C28.9184 48 29.1384 47.585 29.2784 47.1C29.4234 46.615 29.4959 46.115 29.4959 45.6C29.4959 45.06 29.4209 44.5475 29.2709 44.0625C29.1259 43.5775 28.9034 43.1675 28.6034 42.8325C28.3034 42.4975 27.9259 42.285 27.4709 42.195C27.2859 42.155 27.0784 42.1325 26.8484 42.1275C26.6184 42.1225 26.4359 42.12 26.3009 42.12H24.8759V49.08ZM33.4553 51V40.2H40.0553V42.24H35.4953V44.58H39.1553V46.62H35.4953V51H33.4553ZM40.0109 51V48.96H42.0509V51H40.0109Z" fill="white"/>
</svg>
