<svg width="23" height="24" viewBox="0 0 23 24" fill="none" xmlns="http://www.w3.org/2000/svg">
<rect y="0.5" width="23" height="23" rx="11.5" fill="#B4D6A4"/>
<path d="M7.92 16.5L7.08 15.66L14.886 7.86L15.726 8.706L7.92 16.5ZM13.926 16.68C13.53 16.68 13.168 16.584 12.84 16.392C12.516 16.196 12.256 15.936 12.06 15.612C11.864 15.284 11.766 14.92 11.766 14.52C11.766 14.128 11.866 13.768 12.066 13.44C12.266 13.112 12.53 12.85 12.858 12.654C13.186 12.458 13.542 12.36 13.926 12.36C14.322 12.36 14.684 12.458 15.012 12.654C15.34 12.846 15.6 13.106 15.792 13.434C15.988 13.758 16.086 14.12 16.086 14.52C16.086 14.92 15.988 15.284 15.792 15.612C15.6 15.936 15.34 16.196 15.012 16.392C14.684 16.584 14.322 16.68 13.926 16.68ZM13.926 15.594C14.122 15.594 14.3 15.546 14.46 15.45C14.624 15.35 14.754 15.218 14.85 15.054C14.95 14.89 15 14.712 15 14.52C15 14.328 14.95 14.15 14.85 13.986C14.754 13.822 14.624 13.692 14.46 13.596C14.3 13.496 14.122 13.446 13.926 13.446C13.734 13.446 13.556 13.496 13.392 13.596C13.232 13.692 13.102 13.822 13.002 13.986C12.906 14.15 12.858 14.328 12.858 14.52C12.858 14.712 12.906 14.89 13.002 15.054C13.102 15.218 13.232 15.35 13.392 15.45C13.556 15.546 13.734 15.594 13.926 15.594ZM8.88 12C8.484 12 8.122 11.904 7.794 11.712C7.466 11.516 7.204 11.256 7.008 10.932C6.816 10.604 6.72 10.24 6.72 9.84C6.72 9.448 6.82 9.088 7.02 8.76C7.22 8.432 7.484 8.17 7.812 7.974C8.14 7.778 8.496 7.68 8.88 7.68C9.276 7.68 9.636 7.778 9.96 7.974C10.288 8.166 10.55 8.426 10.746 8.754C10.942 9.078 11.04 9.44 11.04 9.84C11.04 10.24 10.942 10.604 10.746 10.932C10.55 11.256 10.288 11.516 9.96 11.712C9.636 11.904 9.276 12 8.88 12ZM8.88 10.914C9.072 10.914 9.25 10.866 9.414 10.77C9.578 10.67 9.708 10.538 9.804 10.374C9.904 10.21 9.954 10.032 9.954 9.84C9.954 9.648 9.904 9.47 9.804 9.306C9.708 9.142 9.578 9.012 9.414 8.916C9.25 8.816 9.072 8.766 8.88 8.766C8.688 8.766 8.51 8.816 8.346 8.916C8.186 9.012 8.056 9.142 7.956 9.306C7.856 9.47 7.806 9.648 7.806 9.84C7.806 10.032 7.856 10.21 7.956 10.374C8.056 10.538 8.186 10.67 8.346 10.77C8.506 10.866 8.684 10.914 8.88 10.914Z" fill="white"/>
</svg>
