<svg width="43" height="43" viewBox="0 0 43 43" fill="none" xmlns="http://www.w3.org/2000/svg">
<path fill-rule="evenodd" clip-rule="evenodd" d="M16.9313 29.1594C18.275 29.9656 19.8875 30.3687 21.5 30.3687C26.4719 30.3687 30.3688 26.3375 30.3688 21.6344C30.3688 19.2156 29.5625 17.0656 27.8156 15.3188C26.0688 13.7062 23.9188 12.7656 21.5 12.7656C16.6625 12.7656 12.6312 16.7969 12.6312 21.6344C12.6312 23.2469 13.0344 24.8594 13.975 26.3375L14.2438 26.7406L13.3031 29.9656L16.6625 29.025L16.9313 29.1594ZM24.4563 22.8438C24.725 22.8438 26.0688 23.5156 26.3375 23.65C26.3794 23.6709 26.4212 23.6886 26.4625 23.706C26.6867 23.8007 26.8959 23.889 27.0094 24.4562C27.1438 24.4562 27.1437 24.9937 26.875 25.6656C26.7406 26.2031 25.6656 26.875 25.1281 26.875C25.0371 26.875 24.9499 26.8827 24.8567 26.891C24.4 26.9313 23.8005 26.9844 21.9031 26.2031C19.5482 25.2612 17.9156 22.978 17.4571 22.3369C17.3923 22.2463 17.351 22.1885 17.3344 22.1719C17.3115 22.1261 17.2652 22.0531 17.2042 21.9568C16.9069 21.4874 16.2594 20.465 16.2594 19.35C16.2594 18.0063 16.9312 17.3344 17.2 17.0656C17.4687 16.7969 17.7375 16.7969 17.8719 16.7969H18.4094C18.5438 16.7969 18.8125 16.7969 18.9469 17.2C19.2156 17.7375 19.7531 19.0812 19.7531 19.2156C19.7531 19.2604 19.7681 19.3052 19.783 19.35C19.8129 19.4396 19.8427 19.5292 19.7531 19.6187C19.6859 19.6859 19.6524 19.7531 19.6188 19.8203C19.5852 19.8875 19.5516 19.9547 19.4844 20.0219L19.0813 20.425C18.9469 20.5594 18.8125 20.6938 18.9469 20.9625C19.0813 21.2313 19.6188 22.1719 20.425 22.8438C21.3322 23.6375 22.048 23.9528 22.4108 24.1127C22.478 24.1423 22.533 24.1665 22.575 24.1875C22.8437 24.1875 22.9781 24.1875 23.1125 24.0531C23.1797 23.9188 23.3477 23.7172 23.5156 23.5156C23.6836 23.3141 23.8515 23.1125 23.9187 22.9781C24.0531 22.7094 24.1875 22.7094 24.4563 22.8438Z" fill="#382D27"/>
<path fill-rule="evenodd" clip-rule="evenodd" d="M0 21.5C0 9.62588 9.62588 0 21.5 0C33.3741 0 43 9.62588 43 21.5C43 33.3741 33.3741 43 21.5 43C9.62588 43 0 33.3741 0 21.5ZM21.5 10.75C24.3219 10.75 27.0094 11.825 29.025 13.8406C31.0406 15.8563 32.25 18.5438 32.25 21.3656C32.25 27.2781 27.4125 32.1156 21.5 32.1156C19.7531 32.1156 18.0063 31.5781 16.3938 30.7719L10.75 32.25L12.2281 26.875C11.2875 25.2625 10.75 23.3813 10.75 21.5C10.75 15.5875 15.5875 10.75 21.5 10.75Z" fill="#382D27"/>
</svg>
